<mxfile host="Electron" modified="2025-06-25T10:41:08.766Z" agent="Mozilla/5.0 (Windows NT 10.0; Win64; x64) AppleWebKit/537.36 (KHTML, like Gecko) draw.io/23.0.2 Chrome/120.0.6099.109 Electron/28.1.0 Safari/537.36" etag="OntpNSjrmzxDnxvt7d19" version="23.0.2" type="device">
  <diagram name="PÃ¡gina-1" id="w22Z87Ja5cJAIF6CLn5o">
    <mxGraphModel dx="2927" dy="2411" grid="0" gridSize="10" guides="1" tooltips="1" connect="1" arrows="1" fold="1" page="1" pageScale="1" pageWidth="827" pageHeight="1169" background="#ffffff" math="0" shadow="0">
      <root>
        <mxCell id="0" />
        <mxCell id="1" parent="0" />
        <mxCell id="pcxI8a1EhTz-shaCJU3M-1" value="&lt;font style=&quot;font-size: 14px;&quot;&gt;CMF&lt;/font&gt;" style="swimlane;fontStyle=1;align=center;verticalAlign=top;childLayout=stackLayout;horizontal=1;startSize=26;horizontalStack=0;resizeParent=1;resizeParentMax=0;resizeLast=0;collapsible=1;marginBottom=0;whiteSpace=wrap;html=1;strokeWidth=3;shadow=1;fontFamily=Verdana;fontSize=14;labelBackgroundColor=none;fillColor=#A8DADC;strokeColor=#457B9D;fontColor=#1D3557;rounded=1;labelBorderColor=none;" parent="1" vertex="1">
          <mxGeometry x="770" y="-995" width="735" height="518" as="geometry">
            <mxRectangle x="240" y="270" width="70" height="30" as="alternateBounds" />
          </mxGeometry>
        </mxCell>
        <mxCell id="pcxI8a1EhTz-shaCJU3M-2" value="&lt;div style=&quot;font-size: 14px;&quot;&gt;&lt;font style=&quot;font-size: 14px;&quot;&gt;- identificador : int&lt;/font&gt;&lt;/div&gt;&lt;div style=&quot;font-size: 14px;&quot;&gt;&lt;font style=&quot;font-size: 14px;&quot;&gt;- nombrePoliclinico : String&lt;/font&gt;&lt;/div&gt;&lt;div style=&quot;font-size: 14px;&quot;&gt;&lt;font style=&quot;font-size: 14px;&quot;&gt;- directorPoliclinico : String&lt;/font&gt;&lt;/div&gt;&lt;div style=&quot;font-size: 14px;&quot;&gt;&lt;br style=&quot;font-size: 14px;&quot;&gt;&lt;/div&gt;" style="text;strokeColor=none;fillColor=none;align=left;verticalAlign=top;spacingLeft=4;spacingRight=4;overflow=hidden;rotatable=0;points=[[0,0.5],[1,0.5]];portConstraint=eastwest;whiteSpace=wrap;html=1;strokeWidth=3;shadow=1;fontFamily=Verdana;fontSize=14;labelBackgroundColor=none;fontColor=#1D3557;rounded=1;labelBorderColor=none;fontStyle=1" parent="pcxI8a1EhTz-shaCJU3M-1" vertex="1">
          <mxGeometry y="26" width="735" height="64" as="geometry" />
        </mxCell>
        <mxCell id="pcxI8a1EhTz-shaCJU3M-3" value="" style="line;strokeWidth=3;fillColor=none;align=left;verticalAlign=middle;spacingTop=-1;spacingLeft=3;spacingRight=3;rotatable=0;labelPosition=right;points=[];portConstraint=eastwest;strokeColor=#457B9D;shadow=1;fontFamily=Verdana;fontSize=14;labelBackgroundColor=none;fontColor=#1D3557;rounded=1;labelBorderColor=none;fontStyle=1" parent="pcxI8a1EhTz-shaCJU3M-1" vertex="1">
          <mxGeometry y="90" width="735" height="8" as="geometry" />
        </mxCell>
        <mxCell id="pcxI8a1EhTz-shaCJU3M-4" value="&lt;div style=&quot;&quot;&gt;&lt;div style=&quot;&quot;&gt;&lt;div style=&quot;&quot;&gt;+ getInstance() : CMF&lt;/div&gt;&lt;div style=&quot;&quot;&gt;+ getEntitytyUsuario() : PersonalSanitario&lt;/div&gt;&lt;div style=&quot;&quot;&gt;+ agregarPaciente(String, String, String, List&amp;lt;String&amp;gt;, List&amp;lt;String&amp;gt;, String,&amp;nbsp; boolean, LocalDate, String) : boolean&lt;/div&gt;&lt;div style=&quot;&quot;&gt;+ editarPaciente(Paciente, String, String, String, String, Boolean, LocalDate, List&amp;lt;String&amp;gt;, List&amp;lt;String&amp;gt;) : void&lt;/div&gt;&lt;div style=&quot;&quot;&gt;+ eliminarPaciente(id: int) : boolean&lt;/div&gt;&lt;div style=&quot;&quot;&gt;+ crearMedico(String, String, String, int, String, LocalDate, String, String) : void&lt;/div&gt;&lt;div style=&quot;&quot;&gt;+ crearEnfermera(String, String, String, int, String, boolean, int, LocalDate, String, String) : void&lt;/div&gt;&lt;div style=&quot;&quot;&gt;+ obtenerCantidadVisitasPorFecha(fecha: LocalDate) : int&lt;/div&gt;&lt;div style=&quot;&quot;&gt;+ editarVisita(int, LocalDate, String, String, List&amp;lt;Analisis&amp;gt;, List&amp;lt;String&amp;gt;, String) : boolean&lt;/div&gt;&lt;div style=&quot;&quot;&gt;+ agregarVisita(visita: Visita) : void&lt;/div&gt;&lt;div style=&quot;&quot;&gt;+ actualizarVisitaHistoriaClinica(visita: Visita) : void&lt;/div&gt;&lt;div style=&quot;&quot;&gt;+ eliminarVisita(id: int) : void&lt;/div&gt;&lt;div style=&quot;&quot;&gt;+ editarResultadosDeAnalisis(analisis: Analisis, nuevosResultados: String) : void&lt;/div&gt;&lt;div style=&quot;&quot;&gt;+ agregarHojaCargoDiaria(fecha: LocalDate) : void&lt;/div&gt;&lt;div style=&quot;&quot;&gt;+ obtenerFechasDeHojasDeCargo() : List&amp;lt;LocalDate&amp;gt;&lt;/div&gt;&lt;div style=&quot;&quot;&gt;+ getPacientePorId(id: int) : Paciente&lt;/div&gt;&lt;div style=&quot;&quot;&gt;+ limpiarRastroPaciente(id: int) : void&lt;/div&gt;&lt;div style=&quot;&quot;&gt;+ obtenerEmbarazadasEnRiesgo() : List&amp;lt;Paciente&amp;gt;&lt;/div&gt;&lt;div style=&quot;&quot;&gt;+ obtenerRangosDeEdad() : int[]&lt;/div&gt;&lt;div style=&quot;&quot;&gt;+ obtenerPacientesEnRiesgo() : int&lt;/div&gt;&lt;div style=&quot;&quot;&gt;+ obtenerCantVisitasEnUnMes(mes: int, anio: int) : int[]&lt;/div&gt;&lt;/div&gt;&lt;div style=&quot;font-size: 14px;&quot;&gt;&lt;br&gt;&lt;/div&gt;&lt;/div&gt;" style="text;strokeColor=none;fillColor=none;align=left;verticalAlign=top;spacingLeft=4;spacingRight=4;overflow=hidden;rotatable=0;points=[[0,0.5],[1,0.5]];portConstraint=eastwest;whiteSpace=wrap;html=1;strokeWidth=3;shadow=1;fontFamily=Verdana;fontSize=14;labelBackgroundColor=none;fontColor=#1D3557;rounded=1;labelBorderColor=none;fontStyle=1" parent="pcxI8a1EhTz-shaCJU3M-1" vertex="1">
          <mxGeometry y="98" width="735" height="420" as="geometry" />
        </mxCell>
        <mxCell id="pcxI8a1EhTz-shaCJU3M-5" value="Medico" style="swimlane;fontStyle=1;align=center;verticalAlign=top;childLayout=stackLayout;horizontal=1;startSize=26;horizontalStack=0;resizeParent=1;resizeParentMax=0;resizeLast=0;collapsible=1;marginBottom=0;whiteSpace=wrap;html=1;strokeWidth=3;shadow=1;fontFamily=Verdana;fontSize=14;labelBackgroundColor=none;fillColor=#A8DADC;strokeColor=#457B9D;fontColor=#1D3557;rounded=1;labelBorderColor=none;" parent="1" vertex="1">
          <mxGeometry x="1759" y="-629" width="343" height="110" as="geometry" />
        </mxCell>
        <mxCell id="pcxI8a1EhTz-shaCJU3M-6" value="&lt;div style=&quot;font-size: 14px;&quot;&gt;&lt;br&gt;&lt;/div&gt;" style="text;strokeColor=none;fillColor=none;align=left;verticalAlign=top;spacingLeft=4;spacingRight=4;overflow=hidden;rotatable=0;points=[[0,0.5],[1,0.5]];portConstraint=eastwest;whiteSpace=wrap;html=1;strokeWidth=3;shadow=1;fontFamily=Verdana;fontSize=14;labelBackgroundColor=none;fontColor=#1D3557;rounded=1;labelBorderColor=none;fontStyle=1" parent="pcxI8a1EhTz-shaCJU3M-5" vertex="1">
          <mxGeometry y="26" width="343" height="18" as="geometry" />
        </mxCell>
        <mxCell id="pcxI8a1EhTz-shaCJU3M-7" value="" style="line;strokeWidth=3;fillColor=none;align=left;verticalAlign=middle;spacingTop=-1;spacingLeft=3;spacingRight=3;rotatable=0;labelPosition=right;points=[];portConstraint=eastwest;strokeColor=#457B9D;shadow=1;fontFamily=Verdana;fontSize=14;labelBackgroundColor=none;fontColor=#1D3557;rounded=1;labelBorderColor=none;fontStyle=1" parent="pcxI8a1EhTz-shaCJU3M-5" vertex="1">
          <mxGeometry y="44" width="343" height="8" as="geometry" />
        </mxCell>
        <mxCell id="pcxI8a1EhTz-shaCJU3M-8" value="&lt;div style=&quot;font-size: 14px;&quot;&gt;+ Medico(String, String, String, int, String, LocalDate, String, String)&lt;/div&gt;&lt;div style=&quot;font-size: 14px;&quot;&gt;&lt;br&gt;&lt;/div&gt;" style="text;strokeColor=none;fillColor=none;align=left;verticalAlign=top;spacingLeft=4;spacingRight=4;overflow=hidden;rotatable=0;points=[[0,0.5],[1,0.5]];portConstraint=eastwest;whiteSpace=wrap;html=1;strokeWidth=3;shadow=1;fontFamily=Verdana;fontSize=14;labelBackgroundColor=none;fontColor=#1D3557;rounded=1;labelBorderColor=none;fontStyle=1" parent="pcxI8a1EhTz-shaCJU3M-5" vertex="1">
          <mxGeometry y="52" width="343" height="58" as="geometry" />
        </mxCell>
        <mxCell id="pcxI8a1EhTz-shaCJU3M-9" value="Enfermera" style="swimlane;fontStyle=1;align=center;verticalAlign=top;childLayout=stackLayout;horizontal=1;startSize=26;horizontalStack=0;resizeParent=1;resizeParentMax=0;resizeLast=0;collapsible=1;marginBottom=0;whiteSpace=wrap;html=1;strokeWidth=3;shadow=1;fontFamily=Verdana;fontSize=14;labelBackgroundColor=none;fillColor=#A8DADC;strokeColor=#457B9D;fontColor=#1D3557;rounded=1;labelBorderColor=none;" parent="1" vertex="1">
          <mxGeometry x="1565" y="29" width="520" height="178" as="geometry" />
        </mxCell>
        <mxCell id="pcxI8a1EhTz-shaCJU3M-10" value="&lt;div style=&quot;font-size: 14px;&quot;&gt;&lt;span style=&quot;background-color: initial;&quot;&gt;- tieneLicenciatura : boolean&lt;/span&gt;&lt;br&gt;&lt;/div&gt;&lt;div style=&quot;font-size: 14px;&quot;&gt;- aniosExperiencia : int&lt;/div&gt;" style="text;strokeColor=none;fillColor=none;align=left;verticalAlign=top;spacingLeft=4;spacingRight=4;overflow=hidden;rotatable=0;points=[[0,0.5],[1,0.5]];portConstraint=eastwest;whiteSpace=wrap;html=1;strokeWidth=3;shadow=1;fontFamily=Verdana;fontSize=14;labelBackgroundColor=none;fontColor=#1D3557;rounded=1;labelBorderColor=none;fontStyle=1" parent="pcxI8a1EhTz-shaCJU3M-9" vertex="1">
          <mxGeometry y="26" width="520" height="51" as="geometry" />
        </mxCell>
        <mxCell id="pcxI8a1EhTz-shaCJU3M-11" value="" style="line;strokeWidth=3;fillColor=none;align=left;verticalAlign=middle;spacingTop=-1;spacingLeft=3;spacingRight=3;rotatable=0;labelPosition=right;points=[];portConstraint=eastwest;strokeColor=#457B9D;shadow=1;fontFamily=Verdana;fontSize=14;labelBackgroundColor=none;fontColor=#1D3557;rounded=1;labelBorderColor=none;fontStyle=1" parent="pcxI8a1EhTz-shaCJU3M-9" vertex="1">
          <mxGeometry y="77" width="520" height="8" as="geometry" />
        </mxCell>
        <mxCell id="pcxI8a1EhTz-shaCJU3M-12" value="&lt;div style=&quot;font-size: 14px;&quot;&gt;+ Enfermera(String, String, String, int, String, boolean, int, LocalDate, String, String)&lt;/div&gt;&lt;div style=&quot;font-size: 14px;&quot;&gt;+ getLicenciatura() : boolean&lt;/div&gt;&lt;div style=&quot;font-size: 14px;&quot;&gt;&lt;span style=&quot;font-size: 14px;&quot;&gt;+ getAniosExperiencia() : int&lt;br&gt;&lt;/span&gt;&lt;/div&gt;" style="text;strokeColor=none;fillColor=none;align=left;verticalAlign=top;spacingLeft=4;spacingRight=4;overflow=hidden;rotatable=0;points=[[0,0.5],[1,0.5]];portConstraint=eastwest;whiteSpace=wrap;html=1;strokeWidth=3;shadow=1;fontFamily=Verdana;fontSize=14;labelBackgroundColor=none;fontColor=#1D3557;rounded=1;labelBorderColor=none;fontStyle=1" parent="pcxI8a1EhTz-shaCJU3M-9" vertex="1">
          <mxGeometry y="85" width="520" height="93" as="geometry" />
        </mxCell>
        <mxCell id="pcxI8a1EhTz-shaCJU3M-13" value="Paciente" style="swimlane;fontStyle=1;align=center;verticalAlign=top;childLayout=stackLayout;horizontal=1;startSize=26;horizontalStack=0;resizeParent=1;resizeParentMax=0;resizeLast=0;collapsible=1;marginBottom=0;whiteSpace=wrap;html=1;strokeWidth=3;shadow=1;fontFamily=Verdana;fontSize=14;labelBackgroundColor=none;fillColor=#A8DADC;strokeColor=#457B9D;fontColor=#1D3557;rounded=1;labelBorderColor=none;" parent="1" vertex="1">
          <mxGeometry x="860.5" y="-393" width="547" height="266" as="geometry" />
        </mxCell>
        <mxCell id="pcxI8a1EhTz-shaCJU3M-14" value="&lt;div style=&quot;font-size: 14px;&quot;&gt;# direccion&lt;/div&gt;&lt;div style=&quot;font-size: 14px;&quot;&gt;# enfermedadesCronicas : List&amp;lt;String&amp;gt;&lt;/div&gt;&lt;div style=&quot;font-size: 14px;&quot;&gt;# vacunacion : List&amp;lt;String&amp;gt;&lt;/div&gt;" style="text;strokeColor=none;fillColor=none;align=left;verticalAlign=top;spacingLeft=4;spacingRight=4;overflow=hidden;rotatable=0;points=[[0,0.5],[1,0.5]];portConstraint=eastwest;whiteSpace=wrap;html=1;strokeWidth=3;shadow=1;fontFamily=Verdana;fontSize=14;labelBackgroundColor=none;fontColor=#1D3557;rounded=1;labelBorderColor=none;fontStyle=1" parent="pcxI8a1EhTz-shaCJU3M-13" vertex="1">
          <mxGeometry y="26" width="547" height="66" as="geometry" />
        </mxCell>
        <mxCell id="pcxI8a1EhTz-shaCJU3M-15" value="" style="line;strokeWidth=3;fillColor=none;align=left;verticalAlign=middle;spacingTop=-1;spacingLeft=3;spacingRight=3;rotatable=0;labelPosition=right;points=[];portConstraint=eastwest;strokeColor=#457B9D;shadow=1;fontFamily=Verdana;fontSize=14;labelBackgroundColor=none;fontColor=#1D3557;rounded=1;labelBorderColor=none;fontStyle=1" parent="pcxI8a1EhTz-shaCJU3M-13" vertex="1">
          <mxGeometry y="92" width="547" height="8" as="geometry" />
        </mxCell>
        <mxCell id="pcxI8a1EhTz-shaCJU3M-16" value="&lt;div style=&quot;font-size: 14px;&quot;&gt;+ Paciente(int, String, String, String, String, String)&lt;/div&gt;&lt;div style=&quot;font-size: 14px;&quot;&gt;+ getNumeroHistoriaClinica() : int&lt;/div&gt;&lt;div style=&quot;font-size: 14px;&quot;&gt;+ getGenero() : String&lt;br style=&quot;font-size: 14px;&quot;&gt;&lt;/div&gt;&lt;div style=&quot;font-size: 14px;&quot;&gt;+ getEdad() : int&lt;/div&gt;&lt;div style=&quot;font-size: 14px;&quot;&gt;+ getEnfermedadesCronicas() : List&amp;lt;String&amp;gt;&lt;/div&gt;&lt;div style=&quot;font-size: 14px;&quot;&gt;+ getVacunacion() : List&amp;lt;String&amp;gt;&lt;/div&gt;&lt;div style=&quot;font-size: 14px;&quot;&gt;&lt;div&gt;+ setEnfermedadesCronicas(List&amp;lt;String&amp;gt;&lt;span style=&quot;background-color: initial;&quot;&gt;) : void&lt;/span&gt;&lt;/div&gt;&lt;div&gt;+ setVacunacion(List&amp;lt;String&amp;gt;&lt;span style=&quot;background-color: initial;&quot;&gt;) :&amp;nbsp; void&amp;nbsp;&lt;/span&gt;&lt;/div&gt;&lt;div&gt;&lt;span style=&quot;background-color: initial;&quot;&gt;+ estaEnRiesgo() : boolean&lt;/span&gt;&lt;/div&gt;&lt;/div&gt;" style="text;strokeColor=none;fillColor=none;align=left;verticalAlign=top;spacingLeft=4;spacingRight=4;overflow=hidden;rotatable=0;points=[[0,0.5],[1,0.5]];portConstraint=eastwest;whiteSpace=wrap;html=1;strokeWidth=3;shadow=1;fontFamily=Verdana;fontSize=14;labelBackgroundColor=none;fontColor=#1D3557;rounded=1;labelBorderColor=none;fontStyle=1" parent="pcxI8a1EhTz-shaCJU3M-13" vertex="1">
          <mxGeometry y="100" width="547" height="166" as="geometry" />
        </mxCell>
        <mxCell id="pcxI8a1EhTz-shaCJU3M-17" value="Mujer" style="swimlane;fontStyle=1;align=center;verticalAlign=top;childLayout=stackLayout;horizontal=1;startSize=26;horizontalStack=0;resizeParent=1;resizeParentMax=0;resizeLast=0;collapsible=1;marginBottom=0;whiteSpace=wrap;html=1;strokeWidth=3;shadow=1;fontFamily=Verdana;fontSize=14;labelBackgroundColor=none;fillColor=#A8DADC;strokeColor=#457B9D;fontColor=#1D3557;rounded=1;labelBorderColor=none;" parent="1" vertex="1">
          <mxGeometry x="121" y="-94" width="685" height="217" as="geometry" />
        </mxCell>
        <mxCell id="pcxI8a1EhTz-shaCJU3M-18" value="&lt;div style=&quot;font-size: 14px;&quot;&gt;- fechaUltimaPruebaCitologica : Date&lt;/div&gt;&lt;div style=&quot;font-size: 14px;&quot;&gt;- estaEmbarazada : boolean&lt;/div&gt;" style="text;strokeColor=none;fillColor=none;align=left;verticalAlign=top;spacingLeft=4;spacingRight=4;overflow=hidden;rotatable=0;points=[[0,0.5],[1,0.5]];portConstraint=eastwest;whiteSpace=wrap;html=1;strokeWidth=3;shadow=1;fontFamily=Verdana;fontSize=14;labelBackgroundColor=none;fontColor=#1D3557;rounded=1;labelBorderColor=none;fontStyle=1" parent="pcxI8a1EhTz-shaCJU3M-17" vertex="1">
          <mxGeometry y="26" width="685" height="44" as="geometry" />
        </mxCell>
        <mxCell id="pcxI8a1EhTz-shaCJU3M-19" value="" style="line;strokeWidth=3;fillColor=none;align=left;verticalAlign=middle;spacingTop=-1;spacingLeft=3;spacingRight=3;rotatable=0;labelPosition=right;points=[];portConstraint=eastwest;strokeColor=#457B9D;shadow=1;fontFamily=Verdana;fontSize=14;labelBackgroundColor=none;fontColor=#1D3557;rounded=1;labelBorderColor=none;fontStyle=1" parent="pcxI8a1EhTz-shaCJU3M-17" vertex="1">
          <mxGeometry y="70" width="685" height="8" as="geometry" />
        </mxCell>
        <mxCell id="pcxI8a1EhTz-shaCJU3M-20" value="&lt;div style=&quot;font-size: 14px;&quot;&gt;+ Mujer(int, String, String, String, String, String, LocalDate, boolean)&lt;/div&gt;&lt;div style=&quot;font-size: 14px;&quot;&gt;+ getGenero() : String&lt;br style=&quot;font-size: 14px;&quot;&gt;&lt;/div&gt;&lt;div style=&quot;font-size: 14px;&quot;&gt;+ getFechaUltimaPruebaCitologica() : LocalDate&lt;/div&gt;&lt;div style=&quot;font-size: 14px;&quot;&gt;+ setFechaUltimaPruebaCitologica(fechaUltimaPruebaCitologica: LocalDate) : void&lt;/div&gt;&lt;div style=&quot;font-size: 14px;&quot;&gt;+ isEstaEmbarazada() : boolean&lt;/div&gt;&lt;div style=&quot;font-size: 14px;&quot;&gt;+ setEstaEmbarazada(estaEmbarazada: boolean) : void&lt;/div&gt;&lt;div style=&quot;font-size: 14px;&quot;&gt;+ estaEnRiesgo() : boolean&lt;/div&gt;" style="text;strokeColor=none;fillColor=none;align=left;verticalAlign=top;spacingLeft=4;spacingRight=4;overflow=hidden;rotatable=0;points=[[0,0.5],[1,0.5]];portConstraint=eastwest;whiteSpace=wrap;html=1;strokeWidth=3;shadow=1;fontFamily=Verdana;fontSize=14;labelBackgroundColor=none;fontColor=#1D3557;rounded=1;labelBorderColor=none;fontStyle=1" parent="pcxI8a1EhTz-shaCJU3M-17" vertex="1">
          <mxGeometry y="78" width="685" height="139" as="geometry" />
        </mxCell>
        <mxCell id="pcxI8a1EhTz-shaCJU3M-21" value="&lt;i style=&quot;font-size: 14px;&quot;&gt;Persona&lt;br style=&quot;font-size: 14px;&quot;&gt;&lt;/i&gt;&lt;i style=&quot;font-size: 14px;&quot;&gt;&amp;lt;&lt;/i&gt;&lt;i style=&quot;font-size: 14px;&quot;&gt;&amp;lt;&lt;span style=&quot;font-size: 14px;&quot;&gt;abstract&lt;/span&gt;&amp;gt;&lt;/i&gt;&lt;i style=&quot;font-size: 14px;&quot;&gt;&amp;gt;&lt;/i&gt;" style="swimlane;fontStyle=1;align=center;verticalAlign=top;childLayout=stackLayout;horizontal=1;startSize=50;horizontalStack=0;resizeParent=1;resizeParentMax=0;resizeLast=0;collapsible=1;marginBottom=0;whiteSpace=wrap;html=1;strokeWidth=3;shadow=1;fontFamily=Verdana;fontSize=14;labelBackgroundColor=none;fillColor=#A8DADC;strokeColor=#457B9D;fontColor=#1D3557;rounded=1;labelBorderColor=none;" parent="1" vertex="1">
          <mxGeometry x="987.5" y="-71" width="293" height="179" as="geometry" />
        </mxCell>
        <mxCell id="pcxI8a1EhTz-shaCJU3M-22" value="# nombre : String&lt;br&gt;# primerApellido : String&lt;br&gt;# segundoApellido : String&lt;br&gt;# CI : String" style="text;strokeColor=none;fillColor=none;align=left;verticalAlign=top;spacingLeft=4;spacingRight=4;overflow=hidden;rotatable=0;points=[[0,0.5],[1,0.5]];portConstraint=eastwest;whiteSpace=wrap;html=1;strokeWidth=3;shadow=1;fontFamily=Verdana;fontSize=14;labelBackgroundColor=none;fontColor=#1D3557;rounded=1;labelBorderColor=none;fontStyle=1" parent="pcxI8a1EhTz-shaCJU3M-21" vertex="1">
          <mxGeometry y="50" width="293" height="77" as="geometry" />
        </mxCell>
        <mxCell id="pcxI8a1EhTz-shaCJU3M-23" value="" style="line;strokeWidth=3;fillColor=none;align=left;verticalAlign=middle;spacingTop=-1;spacingLeft=3;spacingRight=3;rotatable=0;labelPosition=right;points=[];portConstraint=eastwest;strokeColor=#457B9D;shadow=1;fontFamily=Verdana;fontSize=14;labelBackgroundColor=none;fontColor=#1D3557;rounded=1;labelBorderColor=none;fontStyle=1" parent="pcxI8a1EhTz-shaCJU3M-21" vertex="1">
          <mxGeometry y="127" width="293" height="52" as="geometry" />
        </mxCell>
        <mxCell id="pcxI8a1EhTz-shaCJU3M-25" value="HojaCargosDiaria" style="swimlane;fontStyle=1;align=center;verticalAlign=top;childLayout=stackLayout;horizontal=1;startSize=26;horizontalStack=0;resizeParent=1;resizeParentMax=0;resizeLast=0;collapsible=1;marginBottom=0;whiteSpace=wrap;html=1;strokeWidth=3;shadow=1;fontFamily=Verdana;fontSize=14;labelBackgroundColor=none;fillColor=#A8DADC;strokeColor=#457B9D;fontColor=#1D3557;rounded=1;labelBorderColor=none;" parent="1" vertex="1">
          <mxGeometry x="94.5" y="-747" width="459" height="150" as="geometry" />
        </mxCell>
        <mxCell id="pcxI8a1EhTz-shaCJU3M-26" value="- fecha : Date" style="text;strokeColor=none;fillColor=none;align=left;verticalAlign=top;spacingLeft=4;spacingRight=4;overflow=hidden;rotatable=0;points=[[0,0.5],[1,0.5]];portConstraint=eastwest;whiteSpace=wrap;html=1;strokeWidth=3;shadow=1;fontFamily=Verdana;fontSize=14;labelBackgroundColor=none;fontColor=#1D3557;rounded=1;labelBorderColor=none;fontStyle=1" parent="pcxI8a1EhTz-shaCJU3M-25" vertex="1">
          <mxGeometry y="26" width="459" height="26" as="geometry" />
        </mxCell>
        <mxCell id="pcxI8a1EhTz-shaCJU3M-27" value="" style="line;strokeWidth=3;fillColor=none;align=left;verticalAlign=middle;spacingTop=-1;spacingLeft=3;spacingRight=3;rotatable=0;labelPosition=right;points=[];portConstraint=eastwest;strokeColor=#457B9D;shadow=1;fontFamily=Verdana;fontSize=14;labelBackgroundColor=none;fontColor=#1D3557;rounded=1;labelBorderColor=none;fontStyle=1" parent="pcxI8a1EhTz-shaCJU3M-25" vertex="1">
          <mxGeometry y="52" width="459" height="8" as="geometry" />
        </mxCell>
        <mxCell id="pcxI8a1EhTz-shaCJU3M-28" value="&lt;div style=&quot;font-size: 14px;&quot;&gt;+ HojaCargosDiaria(LocalDate)&lt;/div&gt;&lt;div style=&quot;font-size: 14px;&quot;&gt;&lt;span style=&quot;font-size: 14px;&quot;&gt;+ getFecha() : LocalDate&lt;/span&gt;&lt;/div&gt;&lt;div style=&quot;font-size: 14px;&quot;&gt;+ getVisitas() : List&amp;lt;Visitas&amp;gt;&lt;/div&gt;&lt;div style=&quot;font-size: 14px;&quot;&gt;+ agregarVisita(visita: Visita) : void&lt;/div&gt;" style="text;strokeColor=none;fillColor=none;align=left;verticalAlign=top;spacingLeft=4;spacingRight=4;overflow=hidden;rotatable=0;points=[[0,0.5],[1,0.5]];portConstraint=eastwest;whiteSpace=wrap;html=1;strokeWidth=3;shadow=1;fontFamily=Verdana;fontSize=14;labelBackgroundColor=none;fontColor=#1D3557;rounded=1;labelBorderColor=none;fontStyle=1" parent="pcxI8a1EhTz-shaCJU3M-25" vertex="1">
          <mxGeometry y="60" width="459" height="90" as="geometry" />
        </mxCell>
        <mxCell id="pcxI8a1EhTz-shaCJU3M-34" value="HistoriaClinica" style="swimlane;fontStyle=1;align=center;verticalAlign=top;childLayout=stackLayout;horizontal=1;startSize=26;horizontalStack=0;resizeParent=1;resizeParentMax=0;resizeLast=0;collapsible=1;marginBottom=0;whiteSpace=wrap;html=1;strokeWidth=3;shadow=1;fontFamily=Verdana;fontSize=14;labelBackgroundColor=none;fillColor=#A8DADC;strokeColor=#457B9D;fontColor=#1D3557;rounded=1;labelBorderColor=none;" parent="1" vertex="1">
          <mxGeometry x="-9" y="-419" width="524" height="140" as="geometry" />
        </mxCell>
        <mxCell id="pcxI8a1EhTz-shaCJU3M-35" value="- numeroHistoriaClinica : int" style="text;strokeColor=none;fillColor=none;align=left;verticalAlign=top;spacingLeft=4;spacingRight=4;overflow=hidden;rotatable=0;points=[[0,0.5],[1,0.5]];portConstraint=eastwest;whiteSpace=wrap;html=1;strokeWidth=3;shadow=1;fontFamily=Verdana;fontSize=14;labelBackgroundColor=none;fontColor=#1D3557;rounded=1;labelBorderColor=none;fontStyle=1" parent="pcxI8a1EhTz-shaCJU3M-34" vertex="1">
          <mxGeometry y="26" width="524" height="26" as="geometry" />
        </mxCell>
        <mxCell id="pcxI8a1EhTz-shaCJU3M-36" value="" style="line;strokeWidth=3;fillColor=none;align=left;verticalAlign=middle;spacingTop=-1;spacingLeft=3;spacingRight=3;rotatable=0;labelPosition=right;points=[];portConstraint=eastwest;strokeColor=#457B9D;shadow=1;fontFamily=Verdana;fontSize=14;labelBackgroundColor=none;fontColor=#1D3557;rounded=1;labelBorderColor=none;fontStyle=1" parent="pcxI8a1EhTz-shaCJU3M-34" vertex="1">
          <mxGeometry y="52" width="524" height="8" as="geometry" />
        </mxCell>
        <mxCell id="pcxI8a1EhTz-shaCJU3M-37" value="&lt;div style=&quot;font-size: 14px;&quot;&gt;+ HistoriaClinica(int, List&amp;lt;Visita&amp;gt;)&lt;/div&gt;&lt;div style=&quot;font-size: 14px;&quot;&gt;+ getNumeroHistoriaClinica() : int&lt;/div&gt;&lt;div style=&quot;font-size: 14px;&quot;&gt;+ getVisitas() : List&amp;lt;Visita&amp;gt;&lt;/div&gt;&lt;div style=&quot;font-size: 14px;&quot;&gt;+ agregarVisita(visita: Visita) : void&lt;/div&gt;" style="text;strokeColor=none;fillColor=none;align=left;verticalAlign=top;spacingLeft=4;spacingRight=4;overflow=hidden;rotatable=0;points=[[0,0.5],[1,0.5]];portConstraint=eastwest;whiteSpace=wrap;html=1;strokeWidth=3;shadow=1;fontFamily=Verdana;fontSize=14;labelBackgroundColor=none;fontColor=#1D3557;rounded=1;labelBorderColor=none;fontStyle=1" parent="pcxI8a1EhTz-shaCJU3M-34" vertex="1">
          <mxGeometry y="60" width="524" height="80" as="geometry" />
        </mxCell>
        <mxCell id="pcxI8a1EhTz-shaCJU3M-38" value="Visita" style="swimlane;fontStyle=1;align=center;verticalAlign=top;childLayout=stackLayout;horizontal=1;startSize=26;horizontalStack=0;resizeParent=1;resizeParentMax=0;resizeLast=0;collapsible=1;marginBottom=0;whiteSpace=wrap;html=1;strokeWidth=3;shadow=1;fontFamily=Verdana;fontSize=14;labelBackgroundColor=none;fillColor=#A8DADC;strokeColor=#457B9D;fontColor=#1D3557;rounded=1;labelBorderColor=none;" parent="1" vertex="1">
          <mxGeometry x="-413" y="-1040" width="382" height="278" as="geometry" />
        </mxCell>
        <mxCell id="pcxI8a1EhTz-shaCJU3M-39" value="&lt;div style=&quot;font-size: 14px;&quot;&gt;- id : int&lt;/div&gt;&lt;div style=&quot;font-size: 14px;&quot;&gt;- pacienteHistoriaClinicaID: int&lt;/div&gt;&lt;div style=&quot;font-size: 14px;&quot;&gt;- fecha : LocalDate&lt;/div&gt;&lt;div style=&quot;font-size: 14px;&quot;&gt;&lt;span style=&quot;font-size: 14px;&quot;&gt;- direccion : String&lt;/span&gt;&lt;/div&gt;&lt;div style=&quot;font-size: 14px;&quot;&gt;&lt;span style=&quot;font-size: 14px;&quot;&gt;- diagnostico : String&lt;/span&gt;&lt;/div&gt;&lt;div style=&quot;font-size: 14px;&quot;&gt;- tratamiento : String&lt;/div&gt;&lt;div style=&quot;font-size: 14px;&quot;&gt;- especialidadesRemitidas : List&amp;lt;String&amp;gt;&lt;/div&gt;" style="text;strokeColor=none;fillColor=none;align=left;verticalAlign=top;spacingLeft=4;spacingRight=4;overflow=hidden;rotatable=0;points=[[0,0.5],[1,0.5]];portConstraint=eastwest;whiteSpace=wrap;html=1;strokeWidth=3;shadow=1;fontFamily=Verdana;fontSize=14;labelBackgroundColor=none;fontColor=#1D3557;rounded=1;labelBorderColor=none;fontStyle=1" parent="pcxI8a1EhTz-shaCJU3M-38" vertex="1">
          <mxGeometry y="26" width="382" height="136" as="geometry" />
        </mxCell>
        <mxCell id="pcxI8a1EhTz-shaCJU3M-40" value="" style="line;strokeWidth=3;fillColor=none;align=left;verticalAlign=middle;spacingTop=-1;spacingLeft=3;spacingRight=3;rotatable=0;labelPosition=right;points=[];portConstraint=eastwest;strokeColor=#457B9D;shadow=1;fontFamily=Verdana;fontSize=14;labelBackgroundColor=none;fontColor=#1D3557;rounded=1;labelBorderColor=none;fontStyle=1" parent="pcxI8a1EhTz-shaCJU3M-38" vertex="1">
          <mxGeometry y="162" width="382" height="8" as="geometry" />
        </mxCell>
        <mxCell id="pcxI8a1EhTz-shaCJU3M-41" value="&lt;div style=&quot;font-size: 14px;&quot;&gt;+ Visita(int, int, LocalDate, String, String,&amp;nbsp;&amp;nbsp;&lt;/div&gt;List&amp;lt;Analisis&amp;gt;, List&amp;lt;String&amp;gt;, String)&lt;br&gt;&lt;div style=&quot;font-size: 14px;&quot;&gt;+ getFecha() : Date&lt;/div&gt;&lt;div style=&quot;font-size: 14px;&quot;&gt;+ getDiagnostico() : String&lt;/div&gt;&lt;div style=&quot;font-size: 14px;&quot;&gt;+ getTratamiento() : String&lt;/div&gt;" style="text;strokeColor=none;fillColor=none;align=left;verticalAlign=top;spacingLeft=4;spacingRight=4;overflow=hidden;rotatable=0;points=[[0,0.5],[1,0.5]];portConstraint=eastwest;whiteSpace=wrap;html=1;strokeWidth=3;shadow=1;fontFamily=Verdana;fontSize=14;labelBackgroundColor=none;fontColor=#1D3557;rounded=1;labelBorderColor=none;fontStyle=1" parent="pcxI8a1EhTz-shaCJU3M-38" vertex="1">
          <mxGeometry y="170" width="382" height="108" as="geometry" />
        </mxCell>
        <mxCell id="KR2su1rEr3hzMFk6SOXW-2" value="" style="endArrow=diamondThin;endFill=1;endSize=24;html=1;rounded=0;fillColor=#A8DADC;strokeColor=#457B9D;strokeWidth=3;labelBackgroundColor=none;fontColor=default;fontSize=14;fontStyle=1;fontFamily=Verdana;entryX=1.002;entryY=0.724;entryDx=0;entryDy=0;entryPerimeter=0;exitX=0.01;exitY=0.184;exitDx=0;exitDy=0;exitPerimeter=0;" parent="1" source="pcxI8a1EhTz-shaCJU3M-6" target="pcxI8a1EhTz-shaCJU3M-4" edge="1">
          <mxGeometry width="160" relative="1" as="geometry">
            <mxPoint x="1641" y="-540" as="sourcePoint" />
            <mxPoint x="864" y="-360" as="targetPoint" />
          </mxGeometry>
        </mxCell>
        <mxCell id="KR2su1rEr3hzMFk6SOXW-3" value="1" style="edgeLabel;html=1;align=center;verticalAlign=middle;resizable=0;points=[];fontSize=14;fontFamily=Verdana;labelBackgroundColor=none;fontColor=#1D3557;fontStyle=1" parent="KR2su1rEr3hzMFk6SOXW-2" vertex="1" connectable="0">
          <mxGeometry x="0.6599" y="-2" relative="1" as="geometry">
            <mxPoint x="-27" y="93" as="offset" />
          </mxGeometry>
        </mxCell>
        <mxCell id="KR2su1rEr3hzMFk6SOXW-4" value="1" style="edgeLabel;html=1;align=center;verticalAlign=middle;resizable=0;points=[];fontSize=14;fontStyle=1;fontFamily=Verdana;labelBackgroundColor=none;fontColor=#1D3557;" parent="KR2su1rEr3hzMFk6SOXW-2" vertex="1" connectable="0">
          <mxGeometry x="-0.6463" y="4" relative="1" as="geometry">
            <mxPoint x="2" y="-31" as="offset" />
          </mxGeometry>
        </mxCell>
        <mxCell id="KR2su1rEr3hzMFk6SOXW-6" value="" style="endArrow=diamondThin;endFill=1;endSize=24;html=1;rounded=0;fillColor=#A8DADC;strokeColor=#457B9D;strokeWidth=3;labelBackgroundColor=none;fontColor=default;fontSize=14;fontStyle=1;fontFamily=Verdana;" parent="1" source="pcxI8a1EhTz-shaCJU3M-13" target="pcxI8a1EhTz-shaCJU3M-1" edge="1">
          <mxGeometry width="160" relative="1" as="geometry">
            <mxPoint x="1579" y="-218" as="sourcePoint" />
            <mxPoint x="1504" y="-441" as="targetPoint" />
          </mxGeometry>
        </mxCell>
        <mxCell id="KR2su1rEr3hzMFk6SOXW-7" value="1" style="edgeLabel;html=1;align=center;verticalAlign=middle;resizable=0;points=[];fontSize=14;fontFamily=Verdana;labelBackgroundColor=none;fontColor=#1D3557;fontStyle=1" parent="KR2su1rEr3hzMFk6SOXW-6" vertex="1" connectable="0">
          <mxGeometry x="0.6599" y="-2" relative="1" as="geometry">
            <mxPoint x="19" y="-1" as="offset" />
          </mxGeometry>
        </mxCell>
        <mxCell id="KR2su1rEr3hzMFk6SOXW-8" value="1...*" style="edgeLabel;html=1;align=center;verticalAlign=middle;resizable=0;points=[];fontSize=14;fontStyle=1;fontFamily=Verdana;labelBackgroundColor=none;fontColor=#1D3557;" parent="KR2su1rEr3hzMFk6SOXW-6" vertex="1" connectable="0">
          <mxGeometry x="-0.6463" y="4" relative="1" as="geometry">
            <mxPoint x="36" y="-4" as="offset" />
          </mxGeometry>
        </mxCell>
        <mxCell id="KR2su1rEr3hzMFk6SOXW-9" value="" style="endArrow=diamondThin;endFill=1;endSize=24;html=1;rounded=0;fillColor=#A8DADC;strokeColor=#457B9D;strokeWidth=3;labelBackgroundColor=none;fontColor=default;fontSize=14;fontStyle=1;fontFamily=Verdana;entryX=1;entryY=0.5;entryDx=0;entryDy=0;exitX=1;exitY=0.5;exitDx=0;exitDy=0;" parent="1" source="pcxI8a1EhTz-shaCJU3M-9" target="pcxI8a1EhTz-shaCJU3M-4" edge="1">
          <mxGeometry width="160" relative="1" as="geometry">
            <mxPoint x="1050" y="-171" as="sourcePoint" />
            <mxPoint x="975" y="-394" as="targetPoint" />
            <Array as="points">
              <mxPoint x="2198" y="118" />
              <mxPoint x="2198" y="-681" />
            </Array>
          </mxGeometry>
        </mxCell>
        <mxCell id="KR2su1rEr3hzMFk6SOXW-10" value="1" style="edgeLabel;html=1;align=center;verticalAlign=middle;resizable=0;points=[];fontSize=14;fontFamily=Verdana;labelBackgroundColor=none;fontColor=#1D3557;fontStyle=1" parent="KR2su1rEr3hzMFk6SOXW-9" vertex="1" connectable="0">
          <mxGeometry x="0.6599" y="-2" relative="1" as="geometry">
            <mxPoint x="-254" y="-31" as="offset" />
          </mxGeometry>
        </mxCell>
        <mxCell id="KR2su1rEr3hzMFk6SOXW-11" value="1" style="edgeLabel;html=1;align=center;verticalAlign=middle;resizable=0;points=[];fontSize=14;fontStyle=1;fontFamily=Verdana;labelBackgroundColor=none;fontColor=#1D3557;" parent="KR2su1rEr3hzMFk6SOXW-9" vertex="1" connectable="0">
          <mxGeometry x="-0.6463" y="4" relative="1" as="geometry">
            <mxPoint x="-80" y="199" as="offset" />
          </mxGeometry>
        </mxCell>
        <mxCell id="KR2su1rEr3hzMFk6SOXW-12" value="" style="endArrow=block;endSize=16;endFill=0;html=1;rounded=0;strokeColor=#457B9D;fontFamily=Verdana;fontSize=14;fontColor=#1D3557;fillColor=#A8DADC;strokeWidth=3;fontStyle=1" parent="1" source="pcxI8a1EhTz-shaCJU3M-13" target="pcxI8a1EhTz-shaCJU3M-21" edge="1">
          <mxGeometry width="160" relative="1" as="geometry">
            <mxPoint x="1516" y="-419" as="sourcePoint" />
            <mxPoint x="1676" y="-419" as="targetPoint" />
          </mxGeometry>
        </mxCell>
        <mxCell id="KR2su1rEr3hzMFk6SOXW-13" value="" style="endArrow=block;endSize=16;endFill=0;html=1;rounded=0;strokeColor=#457B9D;fontFamily=Verdana;fontSize=14;fontColor=#1D3557;fillColor=#A8DADC;strokeWidth=3;fontStyle=1;entryX=0.5;entryY=0;entryDx=0;entryDy=0;exitX=0.766;exitY=1.019;exitDx=0;exitDy=0;exitPerimeter=0;" parent="1" source="pcxI8a1EhTz-shaCJU3M-8" target="4owrGvup2tXSeQRh5-ks-21" edge="1">
          <mxGeometry width="160" relative="1" as="geometry">
            <mxPoint x="1927" y="-398" as="sourcePoint" />
            <mxPoint x="1612" y="-467" as="targetPoint" />
          </mxGeometry>
        </mxCell>
        <mxCell id="KR2su1rEr3hzMFk6SOXW-14" value="" style="endArrow=block;endSize=16;endFill=0;html=1;rounded=0;strokeColor=#457B9D;fontFamily=Verdana;fontSize=14;fontColor=#1D3557;fillColor=#A8DADC;strokeWidth=3;fontStyle=1;exitX=0.872;exitY=0.002;exitDx=0;exitDy=0;exitPerimeter=0;" parent="1" source="pcxI8a1EhTz-shaCJU3M-9" target="4owrGvup2tXSeQRh5-ks-29" edge="1">
          <mxGeometry width="160" relative="1" as="geometry">
            <mxPoint x="1743" y="-78" as="sourcePoint" />
            <mxPoint x="1622" y="-457" as="targetPoint" />
          </mxGeometry>
        </mxCell>
        <mxCell id="KR2su1rEr3hzMFk6SOXW-15" value="" style="endArrow=block;endSize=16;endFill=0;html=1;rounded=0;strokeColor=#457B9D;fontFamily=Verdana;fontSize=14;fontColor=#1D3557;fillColor=#A8DADC;strokeWidth=3;fontStyle=1;exitX=0.75;exitY=0;exitDx=0;exitDy=0;entryX=0;entryY=0.5;entryDx=0;entryDy=0;" parent="1" source="pcxI8a1EhTz-shaCJU3M-17" target="pcxI8a1EhTz-shaCJU3M-16" edge="1">
          <mxGeometry width="160" relative="1" as="geometry">
            <mxPoint x="969" y="32" as="sourcePoint" />
            <mxPoint x="964" y="-64" as="targetPoint" />
            <Array as="points">
              <mxPoint x="635" y="-203" />
            </Array>
          </mxGeometry>
        </mxCell>
        <mxCell id="KR2su1rEr3hzMFk6SOXW-16" value="" style="endArrow=diamondThin;endFill=1;endSize=24;html=1;rounded=0;fillColor=#A8DADC;strokeColor=#457B9D;strokeWidth=3;labelBackgroundColor=none;fontColor=default;fontSize=14;fontStyle=1;fontFamily=Verdana;entryX=0;entryY=0.5;entryDx=0;entryDy=0;" parent="1" source="pcxI8a1EhTz-shaCJU3M-25" target="pcxI8a1EhTz-shaCJU3M-4" edge="1">
          <mxGeometry width="160" relative="1" as="geometry">
            <mxPoint x="1074" y="-181" as="sourcePoint" />
            <mxPoint x="1074" y="-508" as="targetPoint" />
          </mxGeometry>
        </mxCell>
        <mxCell id="KR2su1rEr3hzMFk6SOXW-17" value="1" style="edgeLabel;html=1;align=center;verticalAlign=middle;resizable=0;points=[];fontSize=14;fontFamily=Verdana;labelBackgroundColor=none;fontColor=#1D3557;fontStyle=1" parent="KR2su1rEr3hzMFk6SOXW-16" vertex="1" connectable="0">
          <mxGeometry x="0.6599" y="-2" relative="1" as="geometry">
            <mxPoint x="3" y="-31" as="offset" />
          </mxGeometry>
        </mxCell>
        <mxCell id="KR2su1rEr3hzMFk6SOXW-18" value="1...*" style="edgeLabel;html=1;align=center;verticalAlign=middle;resizable=0;points=[];fontSize=14;fontStyle=1;fontFamily=Verdana;labelBackgroundColor=none;fontColor=#1D3557;" parent="KR2su1rEr3hzMFk6SOXW-16" vertex="1" connectable="0">
          <mxGeometry x="-0.6463" y="4" relative="1" as="geometry">
            <mxPoint x="-12" y="-26" as="offset" />
          </mxGeometry>
        </mxCell>
        <mxCell id="KR2su1rEr3hzMFk6SOXW-23" value="" style="endArrow=diamondThin;endFill=1;endSize=24;html=1;rounded=0;fillColor=#A8DADC;strokeColor=#457B9D;strokeWidth=3;labelBackgroundColor=none;fontColor=default;fontSize=14;fontStyle=1;fontFamily=Verdana;exitX=1;exitY=0.5;exitDx=0;exitDy=0;entryX=0.003;entryY=0.606;entryDx=0;entryDy=0;entryPerimeter=0;" parent="1" source="pcxI8a1EhTz-shaCJU3M-37" target="pcxI8a1EhTz-shaCJU3M-14" edge="1">
          <mxGeometry width="160" relative="1" as="geometry">
            <mxPoint x="513" y="-581" as="sourcePoint" />
            <mxPoint x="867" y="-327" as="targetPoint" />
            <Array as="points" />
          </mxGeometry>
        </mxCell>
        <mxCell id="KR2su1rEr3hzMFk6SOXW-24" value="1" style="edgeLabel;html=1;align=center;verticalAlign=middle;resizable=0;points=[];fontSize=14;fontFamily=Verdana;labelBackgroundColor=none;fontColor=#1D3557;fontStyle=1" parent="KR2su1rEr3hzMFk6SOXW-23" vertex="1" connectable="0">
          <mxGeometry x="0.6599" y="-2" relative="1" as="geometry">
            <mxPoint x="13" y="-44" as="offset" />
          </mxGeometry>
        </mxCell>
        <mxCell id="KR2su1rEr3hzMFk6SOXW-25" value="1" style="edgeLabel;html=1;align=center;verticalAlign=middle;resizable=0;points=[];fontSize=14;fontStyle=1;fontFamily=Verdana;labelBackgroundColor=none;fontColor=#1D3557;" parent="KR2su1rEr3hzMFk6SOXW-23" vertex="1" connectable="0">
          <mxGeometry x="-0.6463" y="4" relative="1" as="geometry">
            <mxPoint x="-44" y="-25" as="offset" />
          </mxGeometry>
        </mxCell>
        <mxCell id="KR2su1rEr3hzMFk6SOXW-42" value="RegistroGeneral" style="swimlane;fontStyle=1;align=center;verticalAlign=top;childLayout=stackLayout;horizontal=1;startSize=26;horizontalStack=0;resizeParent=1;resizeParentMax=0;resizeLast=0;collapsible=1;marginBottom=0;whiteSpace=wrap;html=1;strokeWidth=3;shadow=1;fontFamily=Verdana;fontSize=14;labelBackgroundColor=none;fillColor=#A8DADC;strokeColor=#457B9D;fontColor=#1D3557;rounded=1;labelBorderColor=none;" parent="1" vertex="1">
          <mxGeometry x="2452" y="-190" width="460" height="96" as="geometry" />
        </mxCell>
        <mxCell id="KR2su1rEr3hzMFk6SOXW-43" value="&lt;div style=&quot;font-size: 14px;&quot;&gt;&lt;br style=&quot;font-size: 14px;&quot;&gt;&lt;/div&gt;" style="text;strokeColor=none;fillColor=none;align=left;verticalAlign=top;spacingLeft=4;spacingRight=4;overflow=hidden;rotatable=0;points=[[0,0.5],[1,0.5]];portConstraint=eastwest;whiteSpace=wrap;html=1;strokeWidth=3;shadow=1;fontFamily=Verdana;fontSize=14;labelBackgroundColor=none;fontColor=#1D3557;rounded=1;labelBorderColor=none;fontStyle=1" parent="KR2su1rEr3hzMFk6SOXW-42" vertex="1">
          <mxGeometry y="26" width="460" height="62" as="geometry" />
        </mxCell>
        <mxCell id="KR2su1rEr3hzMFk6SOXW-44" value="" style="line;strokeWidth=3;fillColor=none;align=left;verticalAlign=middle;spacingTop=-1;spacingLeft=3;spacingRight=3;rotatable=0;labelPosition=right;points=[];portConstraint=eastwest;strokeColor=#457B9D;shadow=1;fontFamily=Verdana;fontSize=14;labelBackgroundColor=none;fontColor=#1D3557;rounded=1;labelBorderColor=none;fontStyle=1" parent="KR2su1rEr3hzMFk6SOXW-42" vertex="1">
          <mxGeometry y="88" width="460" height="8" as="geometry" />
        </mxCell>
        <mxCell id="KR2su1rEr3hzMFk6SOXW-47" value="RegistroHistorico" style="swimlane;fontStyle=1;align=center;verticalAlign=top;childLayout=stackLayout;horizontal=1;startSize=26;horizontalStack=0;resizeParent=1;resizeParentMax=0;resizeLast=0;collapsible=1;marginBottom=0;whiteSpace=wrap;html=1;strokeWidth=3;shadow=1;fontFamily=Verdana;fontSize=14;labelBackgroundColor=none;fillColor=#A8DADC;strokeColor=#457B9D;fontColor=#1D3557;rounded=1;labelBorderColor=none;" parent="1" vertex="1">
          <mxGeometry x="2144" y="-843" width="460" height="96" as="geometry" />
        </mxCell>
        <mxCell id="KR2su1rEr3hzMFk6SOXW-48" value="&lt;div style=&quot;font-size: 14px;&quot;&gt;&lt;br style=&quot;font-size: 14px;&quot;&gt;&lt;/div&gt;" style="text;strokeColor=none;fillColor=none;align=left;verticalAlign=top;spacingLeft=4;spacingRight=4;overflow=hidden;rotatable=0;points=[[0,0.5],[1,0.5]];portConstraint=eastwest;whiteSpace=wrap;html=1;strokeWidth=3;shadow=1;fontFamily=Verdana;fontSize=14;labelBackgroundColor=none;fontColor=#1D3557;rounded=1;labelBorderColor=none;fontStyle=1" parent="KR2su1rEr3hzMFk6SOXW-47" vertex="1">
          <mxGeometry y="26" width="460" height="62" as="geometry" />
        </mxCell>
        <mxCell id="KR2su1rEr3hzMFk6SOXW-49" value="" style="line;strokeWidth=3;fillColor=none;align=left;verticalAlign=middle;spacingTop=-1;spacingLeft=3;spacingRight=3;rotatable=0;labelPosition=right;points=[];portConstraint=eastwest;strokeColor=#457B9D;shadow=1;fontFamily=Verdana;fontSize=14;labelBackgroundColor=none;fontColor=#1D3557;rounded=1;labelBorderColor=none;fontStyle=1" parent="KR2su1rEr3hzMFk6SOXW-47" vertex="1">
          <mxGeometry y="88" width="460" height="8" as="geometry" />
        </mxCell>
        <mxCell id="KR2su1rEr3hzMFk6SOXW-50" value="" style="endArrow=diamondThin;endFill=1;endSize=24;html=1;rounded=0;fillColor=#A8DADC;strokeColor=#457B9D;strokeWidth=3;labelBackgroundColor=none;fontColor=default;fontSize=14;fontStyle=1;fontFamily=Verdana;entryX=1.003;entryY=0.225;entryDx=0;entryDy=0;entryPerimeter=0;" parent="1" source="KR2su1rEr3hzMFk6SOXW-47" target="pcxI8a1EhTz-shaCJU3M-4" edge="1">
          <mxGeometry width="160" relative="1" as="geometry">
            <mxPoint x="1598" y="-666" as="sourcePoint" />
            <mxPoint x="1417" y="-664" as="targetPoint" />
          </mxGeometry>
        </mxCell>
        <mxCell id="KR2su1rEr3hzMFk6SOXW-51" value="1" style="edgeLabel;html=1;align=center;verticalAlign=middle;resizable=0;points=[];fontSize=14;fontFamily=Verdana;labelBackgroundColor=none;fontColor=#1D3557;fontStyle=1" parent="KR2su1rEr3hzMFk6SOXW-50" vertex="1" connectable="0">
          <mxGeometry x="0.6599" y="-2" relative="1" as="geometry">
            <mxPoint x="-93" y="-39" as="offset" />
          </mxGeometry>
        </mxCell>
        <mxCell id="KR2su1rEr3hzMFk6SOXW-52" value="1" style="edgeLabel;html=1;align=center;verticalAlign=middle;resizable=0;points=[];fontSize=14;fontStyle=1;fontFamily=Verdana;labelBackgroundColor=none;fontColor=#1D3557;" parent="KR2su1rEr3hzMFk6SOXW-50" vertex="1" connectable="0">
          <mxGeometry x="-0.6463" y="4" relative="1" as="geometry">
            <mxPoint x="95" y="-37" as="offset" />
          </mxGeometry>
        </mxCell>
        <mxCell id="KR2su1rEr3hzMFk6SOXW-53" value="" style="endArrow=diamondThin;endFill=1;endSize=24;html=1;rounded=0;fillColor=#A8DADC;strokeColor=#457B9D;strokeWidth=3;labelBackgroundColor=none;fontColor=default;fontSize=14;fontStyle=1;fontFamily=Verdana;entryX=1;entryY=0.5;entryDx=0;entryDy=0;" parent="1" source="KR2su1rEr3hzMFk6SOXW-42" target="pcxI8a1EhTz-shaCJU3M-2" edge="1">
          <mxGeometry width="160" relative="1" as="geometry">
            <mxPoint x="1608" y="-656" as="sourcePoint" />
            <mxPoint x="1427" y="-654" as="targetPoint" />
            <Array as="points">
              <mxPoint x="2678" y="-942" />
            </Array>
          </mxGeometry>
        </mxCell>
        <mxCell id="KR2su1rEr3hzMFk6SOXW-54" value="1" style="edgeLabel;html=1;align=center;verticalAlign=middle;resizable=0;points=[];fontSize=14;fontFamily=Verdana;labelBackgroundColor=none;fontColor=#1D3557;fontStyle=1" parent="KR2su1rEr3hzMFk6SOXW-53" vertex="1" connectable="0">
          <mxGeometry x="0.6599" y="-2" relative="1" as="geometry">
            <mxPoint x="-289" y="-36" as="offset" />
          </mxGeometry>
        </mxCell>
        <mxCell id="KR2su1rEr3hzMFk6SOXW-55" value="1" style="edgeLabel;html=1;align=center;verticalAlign=middle;resizable=0;points=[];fontSize=14;fontStyle=1;fontFamily=Verdana;labelBackgroundColor=none;fontColor=#1D3557;" parent="KR2su1rEr3hzMFk6SOXW-53" vertex="1" connectable="0">
          <mxGeometry x="-0.6463" y="4" relative="1" as="geometry">
            <mxPoint x="23" y="288" as="offset" />
          </mxGeometry>
        </mxCell>
        <mxCell id="KR2su1rEr3hzMFk6SOXW-67" value="" style="endArrow=diamondThin;endFill=0;endSize=24;html=1;rounded=0;strokeColor=#457B9D;fontFamily=Verdana;fontSize=14;fontColor=#1D3557;fillColor=#A8DADC;strokeWidth=3;exitX=1;exitY=0.5;exitDx=0;exitDy=0;fontStyle=1" parent="1" source="4owrGvup2tXSeQRh5-ks-18" target="KR2su1rEr3hzMFk6SOXW-47" edge="1">
          <mxGeometry width="160" relative="1" as="geometry">
            <mxPoint x="1696" y="387" as="sourcePoint" />
            <mxPoint x="2698.5241379310346" y="159" as="targetPoint" />
            <Array as="points">
              <mxPoint x="2376" y="269" />
            </Array>
          </mxGeometry>
        </mxCell>
        <mxCell id="KR2su1rEr3hzMFk6SOXW-68" value="0...*" style="edgeLabel;html=1;align=center;verticalAlign=middle;resizable=0;points=[];fontSize=14;fontFamily=Verdana;fontColor=#1D3557;labelBackgroundColor=none;fontStyle=1" parent="KR2su1rEr3hzMFk6SOXW-67" vertex="1" connectable="0">
          <mxGeometry x="-0.4681" y="7" relative="1" as="geometry">
            <mxPoint x="-469" y="-19" as="offset" />
          </mxGeometry>
        </mxCell>
        <mxCell id="KR2su1rEr3hzMFk6SOXW-69" value="1" style="edgeLabel;html=1;align=center;verticalAlign=middle;resizable=0;points=[];fontSize=14;fontFamily=Verdana;fontColor=#1D3557;fontStyle=1;labelBackgroundColor=none;" parent="KR2su1rEr3hzMFk6SOXW-67" vertex="1" connectable="0">
          <mxGeometry x="0.6495" relative="1" as="geometry">
            <mxPoint x="-44" y="-311" as="offset" />
          </mxGeometry>
        </mxCell>
        <mxCell id="KR2su1rEr3hzMFk6SOXW-70" value="" style="endArrow=diamondThin;endFill=0;endSize=24;html=1;rounded=0;strokeColor=#457B9D;fontFamily=Verdana;fontSize=14;fontColor=#1D3557;fillColor=#A8DADC;strokeWidth=3;exitX=1;exitY=0.5;exitDx=0;exitDy=0;fontStyle=1" parent="1" source="4owrGvup2tXSeQRh5-ks-20" target="KR2su1rEr3hzMFk6SOXW-42" edge="1">
          <mxGeometry width="160" relative="1" as="geometry">
            <mxPoint x="1696" y="477.5" as="sourcePoint" />
            <mxPoint x="2634" y="-22" as="targetPoint" />
            <Array as="points">
              <mxPoint x="2682" y="401" />
            </Array>
          </mxGeometry>
        </mxCell>
        <mxCell id="KR2su1rEr3hzMFk6SOXW-71" value="0...*" style="edgeLabel;html=1;align=center;verticalAlign=middle;resizable=0;points=[];fontSize=14;fontFamily=Verdana;fontColor=#1D3557;labelBackgroundColor=none;fontStyle=1" parent="KR2su1rEr3hzMFk6SOXW-70" vertex="1" connectable="0">
          <mxGeometry x="-0.4681" y="7" relative="1" as="geometry">
            <mxPoint x="-398" y="28" as="offset" />
          </mxGeometry>
        </mxCell>
        <mxCell id="KR2su1rEr3hzMFk6SOXW-72" value="1" style="edgeLabel;html=1;align=center;verticalAlign=middle;resizable=0;points=[];fontSize=14;fontFamily=Verdana;fontColor=#1D3557;fontStyle=1;labelBackgroundColor=none;" parent="KR2su1rEr3hzMFk6SOXW-70" vertex="1" connectable="0">
          <mxGeometry x="0.6495" relative="1" as="geometry">
            <mxPoint x="23" y="-239" as="offset" />
          </mxGeometry>
        </mxCell>
        <mxCell id="7HiQaQUDMqqfve5w287f-2" value="" style="endArrow=diamondThin;endFill=0;endSize=24;html=1;rounded=0;strokeColor=#457B9D;fontFamily=Verdana;fontSize=14;fontColor=#1D3557;fillColor=#A8DADC;strokeWidth=3;fontStyle=1;entryX=0;entryY=0.5;entryDx=0;entryDy=0;" parent="1" source="pcxI8a1EhTz-shaCJU3M-38" target="pcxI8a1EhTz-shaCJU3M-37" edge="1">
          <mxGeometry width="160" relative="1" as="geometry">
            <mxPoint x="594" y="-188" as="sourcePoint" />
            <mxPoint x="539" y="-277" as="targetPoint" />
            <Array as="points">
              <mxPoint x="-215" y="-319" />
            </Array>
          </mxGeometry>
        </mxCell>
        <mxCell id="7HiQaQUDMqqfve5w287f-3" value="0..*" style="edgeLabel;html=1;align=center;verticalAlign=middle;resizable=0;points=[];fontSize=14;fontFamily=Verdana;fontColor=#1D3557;labelBackgroundColor=none;fontStyle=1" parent="7HiQaQUDMqqfve5w287f-2" vertex="1" connectable="0">
          <mxGeometry x="-0.4681" y="7" relative="1" as="geometry">
            <mxPoint x="26" y="-142" as="offset" />
          </mxGeometry>
        </mxCell>
        <mxCell id="7HiQaQUDMqqfve5w287f-4" value="1" style="edgeLabel;html=1;align=center;verticalAlign=middle;resizable=0;points=[];fontSize=14;fontFamily=Verdana;fontColor=#1D3557;fontStyle=1;labelBackgroundColor=none;" parent="7HiQaQUDMqqfve5w287f-2" vertex="1" connectable="0">
          <mxGeometry x="0.6495" relative="1" as="geometry">
            <mxPoint x="60" y="-40" as="offset" />
          </mxGeometry>
        </mxCell>
        <mxCell id="4owrGvup2tXSeQRh5-ks-1" value="" style="endArrow=diamondThin;endFill=1;endSize=24;html=1;rounded=0;fillColor=#A8DADC;strokeColor=#457B9D;strokeWidth=3;labelBackgroundColor=none;fontColor=default;fontSize=14;fontStyle=1;fontFamily=Verdana;entryX=-0.007;entryY=0.283;entryDx=0;entryDy=0;entryPerimeter=0;exitX=1;exitY=0.5;exitDx=0;exitDy=0;" parent="1" source="pcxI8a1EhTz-shaCJU3M-39" target="pcxI8a1EhTz-shaCJU3M-2" edge="1">
          <mxGeometry width="160" relative="1" as="geometry">
            <mxPoint x="223" y="-806" as="sourcePoint" />
            <mxPoint x="472" y="-806" as="targetPoint" />
          </mxGeometry>
        </mxCell>
        <mxCell id="4owrGvup2tXSeQRh5-ks-2" value="1" style="edgeLabel;html=1;align=center;verticalAlign=middle;resizable=0;points=[];fontSize=14;fontFamily=Verdana;labelBackgroundColor=none;fontColor=#1D3557;fontStyle=1" parent="4owrGvup2tXSeQRh5-ks-1" vertex="1" connectable="0">
          <mxGeometry x="0.6599" y="-2" relative="1" as="geometry">
            <mxPoint x="72" y="-36" as="offset" />
          </mxGeometry>
        </mxCell>
        <mxCell id="4owrGvup2tXSeQRh5-ks-3" value="0...*" style="edgeLabel;html=1;align=center;verticalAlign=middle;resizable=0;points=[];fontSize=14;fontStyle=1;fontFamily=Verdana;labelBackgroundColor=none;fontColor=#1D3557;" parent="4owrGvup2tXSeQRh5-ks-1" vertex="1" connectable="0">
          <mxGeometry x="-0.6463" y="4" relative="1" as="geometry">
            <mxPoint x="-97" y="-29" as="offset" />
          </mxGeometry>
        </mxCell>
        <mxCell id="4owrGvup2tXSeQRh5-ks-7" value="" style="endArrow=diamondThin;endFill=0;endSize=24;html=1;rounded=0;strokeColor=#457B9D;fontFamily=Verdana;fontSize=14;fontColor=#1D3557;fillColor=#A8DADC;strokeWidth=3;fontStyle=1;entryX=0.194;entryY=1.062;entryDx=0;entryDy=0;entryPerimeter=0;exitX=0.898;exitY=1.039;exitDx=0;exitDy=0;exitPerimeter=0;" parent="1" source="pcxI8a1EhTz-shaCJU3M-41" target="pcxI8a1EhTz-shaCJU3M-28" edge="1">
          <mxGeometry width="160" relative="1" as="geometry">
            <mxPoint x="101" y="-357" as="sourcePoint" />
            <mxPoint x="-224" y="-355" as="targetPoint" />
            <Array as="points">
              <mxPoint x="-68" y="-486" />
              <mxPoint x="184" y="-486" />
            </Array>
          </mxGeometry>
        </mxCell>
        <mxCell id="4owrGvup2tXSeQRh5-ks-8" value="0...*" style="edgeLabel;html=1;align=center;verticalAlign=middle;resizable=0;points=[];fontSize=14;fontFamily=Verdana;fontColor=#1D3557;labelBackgroundColor=none;fontStyle=1" parent="4owrGvup2tXSeQRh5-ks-7" vertex="1" connectable="0">
          <mxGeometry x="-0.4681" y="7" relative="1" as="geometry">
            <mxPoint x="27" y="-143" as="offset" />
          </mxGeometry>
        </mxCell>
        <mxCell id="4owrGvup2tXSeQRh5-ks-9" value="1" style="edgeLabel;html=1;align=center;verticalAlign=middle;resizable=0;points=[];fontSize=14;fontFamily=Verdana;fontColor=#1D3557;fontStyle=1;labelBackgroundColor=none;" parent="4owrGvup2tXSeQRh5-ks-7" vertex="1" connectable="0">
          <mxGeometry x="0.6495" relative="1" as="geometry">
            <mxPoint x="29" y="-70" as="offset" />
          </mxGeometry>
        </mxCell>
        <mxCell id="4owrGvup2tXSeQRh5-ks-10" value="" style="endArrow=diamondThin;endFill=1;endSize=24;html=1;rounded=0;fillColor=#A8DADC;strokeColor=#457B9D;strokeWidth=3;labelBackgroundColor=none;fontColor=default;fontSize=14;fontStyle=1;fontFamily=Verdana;entryX=0.191;entryY=1.009;entryDx=0;entryDy=0;entryPerimeter=0;" parent="1" source="4owrGvup2tXSeQRh5-ks-17" target="pcxI8a1EhTz-shaCJU3M-41" edge="1">
          <mxGeometry width="160" relative="1" as="geometry">
            <mxPoint x="-332" y="-59" as="sourcePoint" />
            <mxPoint x="70" y="-59" as="targetPoint" />
            <Array as="points">
              <mxPoint x="-337" y="330" />
            </Array>
          </mxGeometry>
        </mxCell>
        <mxCell id="4owrGvup2tXSeQRh5-ks-11" value="1" style="edgeLabel;html=1;align=center;verticalAlign=middle;resizable=0;points=[];fontSize=14;fontFamily=Verdana;labelBackgroundColor=none;fontColor=#1D3557;fontStyle=1" parent="4owrGvup2tXSeQRh5-ks-10" vertex="1" connectable="0">
          <mxGeometry x="0.6599" y="-2" relative="1" as="geometry">
            <mxPoint x="-48" y="-352" as="offset" />
          </mxGeometry>
        </mxCell>
        <mxCell id="4owrGvup2tXSeQRh5-ks-12" value="0...*" style="edgeLabel;html=1;align=center;verticalAlign=middle;resizable=0;points=[];fontSize=14;fontStyle=1;fontFamily=Verdana;labelBackgroundColor=none;fontColor=#1D3557;" parent="4owrGvup2tXSeQRh5-ks-10" vertex="1" connectable="0">
          <mxGeometry x="-0.6463" y="4" relative="1" as="geometry">
            <mxPoint x="337" y="-39" as="offset" />
          </mxGeometry>
        </mxCell>
        <mxCell id="4owrGvup2tXSeQRh5-ks-17" value="Analisis" style="swimlane;fontStyle=1;align=center;verticalAlign=top;childLayout=stackLayout;horizontal=1;startSize=26;horizontalStack=0;resizeParent=1;resizeParentMax=0;resizeLast=0;collapsible=1;marginBottom=0;whiteSpace=wrap;html=1;strokeWidth=3;shadow=1;fontFamily=Verdana;fontSize=14;labelBackgroundColor=none;fillColor=#A8DADC;strokeColor=#457B9D;fontColor=#1D3557;rounded=1;labelBorderColor=none;" parent="1" vertex="1">
          <mxGeometry x="904" y="170" width="460" height="275" as="geometry" />
        </mxCell>
        <mxCell id="4owrGvup2tXSeQRh5-ks-18" value="&lt;div style=&quot;font-size: 14px;&quot;&gt;&lt;span style=&quot;background-color: initial; font-size: 14px;&quot;&gt;- id : int&lt;/span&gt;&lt;/div&gt;&lt;div style=&quot;font-size: 14px;&quot;&gt;&lt;span style=&quot;background-color: initial; font-size: 14px;&quot;&gt;- numeroHistoriaClinica : String&lt;/span&gt;&lt;br style=&quot;font-size: 14px;&quot;&gt;&lt;/div&gt;&lt;div style=&quot;font-size: 14px;&quot;&gt;&lt;span style=&quot;background-color: initial; font-size: 14px;&quot;&gt;- visitaId : int&lt;/span&gt;&lt;/div&gt;&lt;div style=&quot;font-size: 14px;&quot;&gt;- tipoAnalisis : String&lt;/div&gt;&lt;div style=&quot;font-size: 14px;&quot;&gt;- resultados : String&lt;/div&gt;&lt;div style=&quot;font-size: 14px;&quot;&gt;- fechaOrientado : LocalDate&lt;/div&gt;&lt;div style=&quot;font-size: 14px;&quot;&gt;- fechaResultado : LocalDate&lt;span style=&quot;white-space: pre; font-size: 14px;&quot;&gt;&#x9;&lt;/span&gt;&lt;/div&gt;" style="text;strokeColor=none;fillColor=none;align=left;verticalAlign=top;spacingLeft=4;spacingRight=4;overflow=hidden;rotatable=0;points=[[0,0.5],[1,0.5]];portConstraint=eastwest;whiteSpace=wrap;html=1;strokeWidth=3;shadow=1;fontFamily=Verdana;fontSize=14;labelBackgroundColor=none;fontColor=#1D3557;rounded=1;labelBorderColor=none;fontStyle=1" parent="4owrGvup2tXSeQRh5-ks-17" vertex="1">
          <mxGeometry y="26" width="460" height="138" as="geometry" />
        </mxCell>
        <mxCell id="4owrGvup2tXSeQRh5-ks-19" value="" style="line;strokeWidth=3;fillColor=none;align=left;verticalAlign=middle;spacingTop=-1;spacingLeft=3;spacingRight=3;rotatable=0;labelPosition=right;points=[];portConstraint=eastwest;strokeColor=#457B9D;shadow=1;fontFamily=Verdana;fontSize=14;labelBackgroundColor=none;fontColor=#1D3557;rounded=1;labelBorderColor=none;fontStyle=1" parent="4owrGvup2tXSeQRh5-ks-17" vertex="1">
          <mxGeometry y="164" width="460" height="8" as="geometry" />
        </mxCell>
        <mxCell id="4owrGvup2tXSeQRh5-ks-20" value="&lt;div style=&quot;font-size: 14px;&quot;&gt;+ Analisis(int, String, LocalDate, int, int)&lt;/div&gt;&lt;div style=&quot;font-size: 14px;&quot;&gt;+ getNumeroHistoriaClinica() : int&lt;/div&gt;&lt;div style=&quot;font-size: 14px;&quot;&gt;+ getTipoAnalisis() : String&lt;/div&gt;&lt;div style=&quot;font-size: 14px;&quot;&gt;+ getResultados() : String&lt;/div&gt;&lt;div style=&quot;font-size: 14px;&quot;&gt;+ estaPendienteDeResultado() : boolean&lt;/div&gt;" style="text;strokeColor=none;fillColor=none;align=left;verticalAlign=top;spacingLeft=4;spacingRight=4;overflow=hidden;rotatable=0;points=[[0,0.5],[1,0.5]];portConstraint=eastwest;whiteSpace=wrap;html=1;strokeWidth=3;shadow=1;fontFamily=Verdana;fontSize=14;labelBackgroundColor=none;fontColor=#1D3557;rounded=1;labelBorderColor=none;fontStyle=1" parent="4owrGvup2tXSeQRh5-ks-17" vertex="1">
          <mxGeometry y="172" width="460" height="103" as="geometry" />
        </mxCell>
        <mxCell id="4owrGvup2tXSeQRh5-ks-21" value="&lt;i style=&quot;font-size: 14px;&quot;&gt;PersonalSanitario&lt;br&gt;&amp;lt;&lt;/i&gt;&lt;i style=&quot;font-size: 14px;&quot;&gt;&amp;lt;&lt;span style=&quot;font-size: 14px;&quot;&gt;abstract&lt;/span&gt;&amp;gt;&lt;/i&gt;&lt;i style=&quot;font-size: 14px;&quot;&gt;&amp;gt;&lt;br&gt;&lt;br&gt;&lt;/i&gt;" style="swimlane;fontStyle=1;align=center;verticalAlign=top;childLayout=stackLayout;horizontal=1;startSize=50;horizontalStack=0;resizeParent=1;resizeParentMax=0;resizeLast=0;collapsible=1;marginBottom=0;whiteSpace=wrap;html=1;strokeWidth=3;shadow=1;fontFamily=Verdana;fontSize=14;labelBackgroundColor=none;fillColor=#A8DADC;strokeColor=#457B9D;fontColor=#1D3557;rounded=1;labelBorderColor=none;movable=1;resizable=1;rotatable=1;deletable=1;editable=1;locked=0;connectable=1;" parent="1" vertex="1">
          <mxGeometry x="1874" y="-287" width="293" height="187" as="geometry" />
        </mxCell>
        <mxCell id="4owrGvup2tXSeQRh5-ks-22" value="# identificadorMedico : int&lt;br&gt;# fechaInicioCMF : LocalDate" style="text;strokeColor=none;fillColor=none;align=left;verticalAlign=top;spacingLeft=4;spacingRight=4;overflow=hidden;rotatable=0;points=[[0,0.5],[1,0.5]];portConstraint=eastwest;whiteSpace=wrap;html=1;strokeWidth=3;shadow=1;fontFamily=Verdana;fontSize=14;labelBackgroundColor=none;fontColor=#1D3557;rounded=1;labelBorderColor=none;fontStyle=1" parent="4owrGvup2tXSeQRh5-ks-21" vertex="1">
          <mxGeometry y="50" width="293" height="45" as="geometry" />
        </mxCell>
        <mxCell id="4owrGvup2tXSeQRh5-ks-23" value="" style="line;strokeWidth=3;fillColor=none;align=left;verticalAlign=middle;spacingTop=-1;spacingLeft=3;spacingRight=3;rotatable=0;labelPosition=right;points=[];portConstraint=eastwest;strokeColor=#457B9D;shadow=1;fontFamily=Verdana;fontSize=14;labelBackgroundColor=none;fontColor=#1D3557;rounded=1;labelBorderColor=none;fontStyle=1" parent="4owrGvup2tXSeQRh5-ks-21" vertex="1">
          <mxGeometry y="95" width="293" height="12" as="geometry" />
        </mxCell>
        <mxCell id="4owrGvup2tXSeQRh5-ks-29" value="&lt;div style=&quot;font-size: 14px;&quot;&gt;+ PersonalSanitario(String, String, String, int, String, LocalDate, String, String, TipoDeRol)&lt;/div&gt;" style="text;strokeColor=none;fillColor=none;align=left;verticalAlign=top;spacingLeft=4;spacingRight=4;overflow=hidden;rotatable=0;points=[[0,0.5],[1,0.5]];portConstraint=eastwest;whiteSpace=wrap;html=1;strokeWidth=3;shadow=1;fontFamily=Verdana;fontSize=14;labelBackgroundColor=none;fontColor=#1D3557;rounded=1;labelBorderColor=none;fontStyle=1" parent="4owrGvup2tXSeQRh5-ks-21" vertex="1">
          <mxGeometry y="107" width="293" height="80" as="geometry" />
        </mxCell>
        <mxCell id="4owrGvup2tXSeQRh5-ks-30" value="" style="endArrow=block;endSize=16;endFill=0;html=1;rounded=0;strokeColor=#457B9D;fontFamily=Verdana;fontSize=14;fontColor=#1D3557;fillColor=#A8DADC;strokeWidth=3;fontStyle=1;entryX=1;entryY=0.25;entryDx=0;entryDy=0;exitX=0.111;exitY=1.018;exitDx=0;exitDy=0;exitPerimeter=0;" parent="1" source="4owrGvup2tXSeQRh5-ks-29" target="pcxI8a1EhTz-shaCJU3M-21" edge="1">
          <mxGeometry width="160" relative="1" as="geometry">
            <mxPoint x="1755" y="-384" as="sourcePoint" />
            <mxPoint x="1720" y="-338" as="targetPoint" />
            <Array as="points">
              <mxPoint x="1907" y="-26" />
            </Array>
          </mxGeometry>
        </mxCell>
        <mxCell id="4owrGvup2tXSeQRh5-ks-31" value="Usuario" style="swimlane;fontStyle=1;align=center;verticalAlign=top;childLayout=stackLayout;horizontal=1;startSize=26;horizontalStack=0;resizeParent=1;resizeParentMax=0;resizeLast=0;collapsible=1;marginBottom=0;whiteSpace=wrap;html=1;strokeWidth=3;shadow=1;fontFamily=Verdana;fontSize=14;labelBackgroundColor=none;fillColor=#A8DADC;strokeColor=#457B9D;fontColor=#1D3557;rounded=1;labelBorderColor=none;" parent="1" vertex="1">
          <mxGeometry x="1496" y="-454" width="289" height="183" as="geometry" />
        </mxCell>
        <mxCell id="4owrGvup2tXSeQRh5-ks-32" value="&lt;div style=&quot;font-size: 14px;&quot;&gt;- nombreUsuario : String&lt;/div&gt;&lt;div style=&quot;font-size: 14px;&quot;&gt;- contrasenna : String&lt;/div&gt;&lt;div style=&quot;font-size: 14px;&quot;&gt;- rol : TipoDeRol&lt;/div&gt;" style="text;strokeColor=none;fillColor=none;align=left;verticalAlign=top;spacingLeft=4;spacingRight=4;overflow=hidden;rotatable=0;points=[[0,0.5],[1,0.5]];portConstraint=eastwest;whiteSpace=wrap;html=1;strokeWidth=3;shadow=1;fontFamily=Verdana;fontSize=14;labelBackgroundColor=none;fontColor=#1D3557;rounded=1;labelBorderColor=none;fontStyle=1" parent="4owrGvup2tXSeQRh5-ks-31" vertex="1">
          <mxGeometry y="26" width="289" height="64" as="geometry" />
        </mxCell>
        <mxCell id="4owrGvup2tXSeQRh5-ks-33" value="" style="line;strokeWidth=3;fillColor=none;align=left;verticalAlign=middle;spacingTop=-1;spacingLeft=3;spacingRight=3;rotatable=0;labelPosition=right;points=[];portConstraint=eastwest;strokeColor=#457B9D;shadow=1;fontFamily=Verdana;fontSize=14;labelBackgroundColor=none;fontColor=#1D3557;rounded=1;labelBorderColor=none;fontStyle=1" parent="4owrGvup2tXSeQRh5-ks-31" vertex="1">
          <mxGeometry y="90" width="289" height="8" as="geometry" />
        </mxCell>
        <mxCell id="4owrGvup2tXSeQRh5-ks-34" value="&lt;div style=&quot;font-size: 14px;&quot;&gt;+ Usuario(String, String, TipoDeRol)&lt;/div&gt;" style="text;strokeColor=none;fillColor=none;align=left;verticalAlign=top;spacingLeft=4;spacingRight=4;overflow=hidden;rotatable=0;points=[[0,0.5],[1,0.5]];portConstraint=eastwest;whiteSpace=wrap;html=1;strokeWidth=3;shadow=1;fontFamily=Verdana;fontSize=14;labelBackgroundColor=none;fontColor=#1D3557;rounded=1;labelBorderColor=none;fontStyle=1" parent="4owrGvup2tXSeQRh5-ks-31" vertex="1">
          <mxGeometry y="98" width="289" height="85" as="geometry" />
        </mxCell>
        <mxCell id="4owrGvup2tXSeQRh5-ks-35" value="" style="endArrow=diamondThin;endFill=1;endSize=24;html=1;rounded=0;fillColor=#A8DADC;strokeColor=#457B9D;strokeWidth=3;labelBackgroundColor=none;fontColor=default;fontSize=14;fontStyle=1;fontFamily=Verdana;entryX=0.25;entryY=0;entryDx=0;entryDy=0;exitX=1;exitY=0.5;exitDx=0;exitDy=0;" parent="1" source="4owrGvup2tXSeQRh5-ks-32" target="4owrGvup2tXSeQRh5-ks-21" edge="1">
          <mxGeometry width="160" relative="1" as="geometry">
            <mxPoint x="1791" y="-170" as="sourcePoint" />
            <mxPoint x="1792" y="-269" as="targetPoint" />
            <Array as="points">
              <mxPoint x="1942" y="-396" />
            </Array>
          </mxGeometry>
        </mxCell>
        <mxCell id="4owrGvup2tXSeQRh5-ks-36" value="1" style="edgeLabel;html=1;align=center;verticalAlign=middle;resizable=0;points=[];fontSize=14;fontFamily=Verdana;labelBackgroundColor=none;fontColor=#1D3557;fontStyle=1" parent="4owrGvup2tXSeQRh5-ks-35" vertex="1" connectable="0">
          <mxGeometry x="0.6599" y="-2" relative="1" as="geometry">
            <mxPoint x="35" y="22" as="offset" />
          </mxGeometry>
        </mxCell>
        <mxCell id="4owrGvup2tXSeQRh5-ks-37" value="1" style="edgeLabel;html=1;align=center;verticalAlign=middle;resizable=0;points=[];fontSize=14;fontStyle=1;fontFamily=Verdana;labelBackgroundColor=none;fontColor=#1D3557;" parent="4owrGvup2tXSeQRh5-ks-35" vertex="1" connectable="0">
          <mxGeometry x="-0.6463" y="4" relative="1" as="geometry">
            <mxPoint x="-24" y="-17" as="offset" />
          </mxGeometry>
        </mxCell>
        <mxCell id="4owrGvup2tXSeQRh5-ks-38" value="" style="endArrow=diamondThin;endFill=0;endSize=24;html=1;rounded=0;strokeColor=#457B9D;fontFamily=Verdana;fontSize=14;fontColor=#1D3557;fillColor=#A8DADC;strokeWidth=3;fontStyle=1;entryX=1.004;entryY=0.876;entryDx=0;entryDy=0;exitX=0.5;exitY=0;exitDx=0;exitDy=0;entryPerimeter=0;" parent="1" source="4owrGvup2tXSeQRh5-ks-31" target="pcxI8a1EhTz-shaCJU3M-4" edge="1">
          <mxGeometry width="160" relative="1" as="geometry">
            <mxPoint x="1292" y="-545" as="sourcePoint" />
            <mxPoint x="1544" y="-514" as="targetPoint" />
            <Array as="points">
              <mxPoint x="1641" y="-529" />
            </Array>
          </mxGeometry>
        </mxCell>
        <mxCell id="4owrGvup2tXSeQRh5-ks-39" value="1" style="edgeLabel;html=1;align=center;verticalAlign=middle;resizable=0;points=[];fontSize=14;fontFamily=Verdana;fontColor=#1D3557;labelBackgroundColor=none;fontStyle=1" parent="4owrGvup2tXSeQRh5-ks-38" vertex="1" connectable="0">
          <mxGeometry x="-0.4681" y="7" relative="1" as="geometry">
            <mxPoint x="30" y="29" as="offset" />
          </mxGeometry>
        </mxCell>
        <mxCell id="4owrGvup2tXSeQRh5-ks-40" value="1" style="edgeLabel;html=1;align=center;verticalAlign=middle;resizable=0;points=[];fontSize=14;fontFamily=Verdana;fontColor=#1D3557;fontStyle=1;labelBackgroundColor=none;" parent="4owrGvup2tXSeQRh5-ks-38" vertex="1" connectable="0">
          <mxGeometry x="0.6495" relative="1" as="geometry">
            <mxPoint x="-12" y="-99" as="offset" />
          </mxGeometry>
        </mxCell>
        <mxCell id="4owrGvup2tXSeQRh5-ks-41" value="TipoDeRol&lt;br&gt;&amp;nbsp;Â«enumerationÂ»" style="swimlane;fontStyle=1;childLayout=stackLayout;horizontal=1;startSize=48;horizontalStack=0;resizeParent=1;resizeParentMax=0;resizeLast=0;collapsible=1;marginBottom=0;whiteSpace=wrap;html=1;fontSize=14;fontFamily=Verdana;verticalAlign=top;fillColor=#A8DADC;strokeColor=#457B9D;fontColor=#1D3557;strokeWidth=3;shadow=1;labelBackgroundColor=none;rounded=1;labelBorderColor=none;" parent="1" vertex="1">
          <mxGeometry x="1550.5" y="-186" width="180" height="104" as="geometry" />
        </mxCell>
        <mxCell id="4owrGvup2tXSeQRh5-ks-42" value="MEDICO" style="text;strokeColor=none;fillColor=none;align=left;verticalAlign=middle;spacingLeft=4;spacingRight=4;overflow=hidden;points=[[0,0.5],[1,0.5]];portConstraint=eastwest;rotatable=0;whiteSpace=wrap;html=1;fontColor=#000000;fontStyle=1;fontSize=14;" parent="4owrGvup2tXSeQRh5-ks-41" vertex="1">
          <mxGeometry y="48" width="180" height="29" as="geometry" />
        </mxCell>
        <mxCell id="4owrGvup2tXSeQRh5-ks-43" value="ENFERMERA" style="text;strokeColor=none;fillColor=none;align=left;verticalAlign=middle;spacingLeft=4;spacingRight=4;overflow=hidden;points=[[0,0.5],[1,0.5]];portConstraint=eastwest;rotatable=0;whiteSpace=wrap;html=1;fontSize=14;fontColor=#000000;fontStyle=1" parent="4owrGvup2tXSeQRh5-ks-41" vertex="1">
          <mxGeometry y="77" width="180" height="27" as="geometry" />
        </mxCell>
      </root>
    </mxGraphModel>
  </diagram>
</mxfile>
